<svg viewBox="0 0 512 512" xmlns="http://www.w3.org/2000/svg">
  <defs>
    <radialGradient id="bg" cx="50%" cy="38%" r="82%">
      <stop offset="0%" stop-color="#4a3c28"/><stop offset="100%" stop-color="#241b10"/>
    </radialGradient>
    <linearGradient id="steel" x1="0" y1="0" x2="0" y2="1">
      <stop offset="0%" stop-color="#f1f5fb"/><stop offset="50%" stop-color="#c6cedb"/><stop offset="100%" stop-color="#79839a"/>
    </linearGradient>
    <linearGradient id="poly" x1="0" y1="0" x2="0" y2="1">
      <stop offset="0%" stop-color="#69748a"/><stop offset="100%" stop-color="#363d4b"/>
    </linearGradient>
    <filter id="glow" x="-60%" y="-60%" width="220%" height="220%">
      <feGaussianBlur stdDeviation="4" result="b"/><feMerge><feMergeNode in="b"/><feMergeNode in="SourceGraphic"/></feMerge>
    </filter>
  </defs>
  <rect x="14" y="14" width="484" height="484" rx="68" fill="url(#bg)" stroke="#f8b84a" stroke-opacity="0.5" stroke-width="4"/>
  <g transform="rotate(-7 256 256)">
    <rect x="150" y="206" width="180" height="62" rx="10" fill="url(#poly)" stroke="#aeb7c6" stroke-opacity="0.4" stroke-width="2"/>
    <rect x="160" y="196" width="150" height="12" rx="4" fill="#586273"/>
    <rect x="168" y="186" width="14" height="12" rx="3" fill="#c3cbd8"/>
    <rect x="330" y="222" width="86" height="26" rx="6" fill="url(#steel)" stroke="#dbe2ec" stroke-opacity="0.35" stroke-width="2"/>
    <rect x="408" y="226" width="20" height="18" rx="4" fill="#aab3c2"/>
    <rect x="346" y="206" width="12" height="18" rx="3" fill="#586273"/>
    <path d="M214 266 L258 266 L246 392 L202 392 Z" fill="url(#poly)" stroke="#aeb7c6" stroke-opacity="0.4" stroke-width="2"/>
    <g stroke="#1c2230" stroke-width="3" opacity="0.6">
      <line x1="210" y1="300" x2="252" y2="300"/><line x1="208" y1="330" x2="250" y2="330"/><line x1="206" y1="360" x2="248" y2="360"/>
    </g>
    <path d="M280 268 L322 268 L312 356 L268 356 Z" fill="url(#poly)" stroke="#aeb7c6" stroke-opacity="0.35" stroke-width="2"/>
    <path d="M262 268 Q272 312 300 306" fill="none" stroke="#6a7686" stroke-width="8" stroke-linecap="round"/>
    <path d="M150 224 L96 224 L96 252 L150 252" fill="none" stroke="#586273" stroke-width="12" stroke-linejoin="round"/>
    <circle cx="300" cy="232" r="6.5" fill="#ffce6a" filter="url(#glow)"/>
  </g>
</svg>
